<svg xmlns="http://www.w3.org/2000/svg" xmlns:xlink="http://www.w3.org/1999/xlink" width="500" zoomAndPan="magnify" viewBox="0 0 375 374.999991" height="500" preserveAspectRatio="xMidYMid meet" version="1.0"><defs><clipPath id="8a5267cca2"><path d="M 166 155 L 219 155 L 219 245.789062 L 166 245.789062 Z M 166 155 " clip-rule="nonzero"/></clipPath><clipPath id="00f4f47d2c"><path d="M 131.625 111.539062 L 219 111.539062 L 219 203 L 131.625 203 Z M 131.625 111.539062 " clip-rule="nonzero"/></clipPath><clipPath id="b7906c456a"><path d="M 166 111.539062 L 214 111.539062 L 214 203 L 166 203 Z M 166 111.539062 " clip-rule="nonzero"/></clipPath><clipPath id="f8e64f5268"><path d="M 172 155 L 253.875 155 L 253.875 245.789062 L 172 245.789062 Z M 172 155 " clip-rule="nonzero"/></clipPath></defs><rect x="-37.5" width="450" fill="#ffffff" y="-37.499999" height="449.999989" fill-opacity="1"/><rect x="-37.5" width="450" fill="#ffffff" y="-37.499999" height="449.999989" fill-opacity="1"/><g clip-path="url(#8a5267cca2)"><path fill="#004d46" d="M 211.175781 155.046875 C 211.988281 155.640625 213.140625 156.6875 214.296875 158.183594 C 218.601562 163.742188 223.011719 175.472656 210.535156 192.742188 C 197.917969 210.210938 168.671875 224.160156 177.765625 246.007812 C 177.765625 246.007812 165.464844 241.136719 166.859375 224.191406 C 167.648438 214.589844 173.660156 206.371094 181.097656 198.902344 L 175.863281 198.902344 C 174.679688 198.902344 173.707031 197.933594 173.707031 196.746094 C 173.707031 195.5625 174.675781 194.589844 175.863281 194.589844 L 185.605469 194.589844 C 186.511719 193.757812 187.425781 192.9375 188.347656 192.121094 L 177.742188 192.121094 C 176.558594 192.121094 175.585938 191.152344 175.585938 189.964844 C 175.585938 188.777344 176.554688 187.808594 177.742188 187.808594 L 193.273438 187.808594 C 194.226562 186.980469 195.171875 186.15625 196.101562 185.339844 L 182.605469 185.339844 C 181.417969 185.339844 180.449219 184.371094 180.449219 183.183594 C 180.449219 182 181.417969 181.027344 182.605469 181.027344 L 200.882812 181.027344 C 201.761719 180.203125 202.617188 179.382812 203.4375 178.558594 L 189.71875 178.558594 C 188.535156 178.558594 187.5625 177.59375 187.5625 176.402344 C 187.5625 175.21875 188.535156 174.25 189.71875 174.25 L 207.386719 174.25 C 208.066406 173.425781 208.695312 172.605469 209.265625 171.78125 L 197.648438 171.78125 C 196.464844 171.78125 195.492188 170.8125 195.492188 169.625 C 195.492188 168.441406 196.460938 167.46875 197.648438 167.46875 L 211.699219 167.46875 C 212.050781 166.652344 212.332031 165.824219 212.542969 165 L 205.132812 165 C 203.949219 165 202.976562 164.035156 202.976562 162.84375 C 202.976562 161.660156 203.945312 160.6875 205.132812 160.6875 L 212.925781 160.6875 C 212.777344 158.851562 212.222656 156.972656 211.175781 155.046875 Z M 211.175781 155.046875 " fill-opacity="1" fill-rule="nonzero"/></g><g clip-path="url(#00f4f47d2c)"><path fill="#016080" d="M 174.28125 202.5 C 173.46875 201.90625 172.316406 200.859375 171.160156 199.363281 C 167.125 194.152344 162.996094 183.519531 172.773438 167.980469 C 172.777344 167.976562 172.777344 167.972656 172.78125 167.96875 C 172.777344 167.972656 172.769531 167.980469 172.769531 167.980469 C 165.53125 177.207031 162.867188 188.488281 165.582031 197.972656 L 137.558594 197.972656 C 134.304688 197.972656 131.640625 195.308594 131.640625 192.054688 L 131.640625 165.484375 C 131.640625 162.230469 134.304688 159.566406 137.558594 159.566406 L 163.144531 159.566406 C 168.855469 159.566406 173.527344 154.894531 173.527344 149.183594 L 173.527344 123.605469 C 173.527344 120.351562 176.191406 117.6875 179.445312 117.6875 L 204.730469 117.6875 C 205.359375 122.050781 205.570312 133.191406 194.71875 144.613281 C 194.71875 144.617188 194.804688 144.535156 194.8125 144.527344 C 204.960938 134.722656 213.101562 124.527344 207.695312 111.539062 C 207.695312 111.539062 219.992188 116.410156 218.601562 133.351562 C 216.121094 163.519531 162.082031 180.054688 174.28125 202.5 Z M 174.28125 202.5 " fill-opacity="1" fill-rule="nonzero"/></g><g clip-path="url(#b7906c456a)"><path fill="#00adee" d="M 174.28125 202.5 C 173.46875 201.90625 172.316406 200.855469 171.160156 199.363281 C 166.855469 193.804688 162.445312 182.074219 174.917969 164.804688 C 187.542969 147.335938 216.789062 133.386719 207.691406 111.539062 C 234.824219 148.488281 154.621094 166.753906 174.28125 202.5 Z M 174.28125 202.5 " fill-opacity="1" fill-rule="nonzero"/></g><g clip-path="url(#f8e64f5268)"><path fill="#268a80" d="M 253.8125 165.488281 L 253.8125 192.058594 C 253.8125 195.3125 251.152344 197.976562 247.898438 197.976562 L 222.308594 197.976562 C 216.601562 197.976562 211.925781 202.648438 211.925781 208.359375 L 211.925781 233.945312 C 211.925781 237.203125 209.265625 239.863281 206.011719 239.863281 L 180.722656 239.863281 C 180.097656 235.5 179.886719 224.359375 190.734375 212.9375 C 190.734375 212.933594 190.375 213.28125 190.339844 213.3125 C 180.335938 223.027344 172.40625 233.148438 177.757812 246.011719 C 150.628906 209.0625 230.828125 190.796875 211.171875 155.046875 C 211.984375 155.640625 213.136719 156.691406 214.292969 158.183594 C 218.328125 163.394531 222.460938 174.03125 212.675781 189.570312 C 219.917969 180.34375 222.589844 169.058594 219.871094 159.570312 L 247.894531 159.570312 C 251.152344 159.570312 253.8125 162.234375 253.8125 165.488281 Z M 253.8125 165.488281 " fill-opacity="1" fill-rule="nonzero"/></g></svg>