<svg xmlns="http://www.w3.org/2000/svg" xmlns:xlink="http://www.w3.org/1999/xlink" width="500" zoomAndPan="magnify" viewBox="0 0 375 374.999991" height="500" preserveAspectRatio="xMidYMid meet" version="1.0"><defs><clipPath id="93893867db"><path d="M 161 163 L 214 163 L 214 254.507812 L 161 254.507812 Z M 161 163 " clip-rule="nonzero"/></clipPath><clipPath id="4e75733c34"><path d="M 126.394531 120.257812 L 214 120.257812 L 214 212 L 126.394531 212 Z M 126.394531 120.257812 " clip-rule="nonzero"/></clipPath><clipPath id="ee0eec4757"><path d="M 161 120.257812 L 209 120.257812 L 209 212 L 161 212 Z M 161 120.257812 " clip-rule="nonzero"/></clipPath><clipPath id="f0b5eeca51"><path d="M 166 163 L 248.644531 163 L 248.644531 254.507812 L 166 254.507812 Z M 166 163 " clip-rule="nonzero"/></clipPath></defs><g clip-path="url(#93893867db)"><path fill="#004d46" d="M 205.945312 163.769531 C 206.753906 164.359375 207.90625 165.410156 209.0625 166.90625 C 213.371094 172.464844 217.78125 184.191406 205.304688 201.460938 C 192.683594 218.933594 163.4375 232.882812 172.53125 254.726562 C 172.53125 254.726562 160.234375 249.855469 161.625 232.914062 C 162.414062 223.3125 168.429688 215.089844 175.867188 207.625 L 170.628906 207.625 C 169.445312 207.625 168.472656 206.65625 168.472656 205.46875 C 168.472656 204.28125 169.441406 203.3125 170.628906 203.3125 L 180.375 203.3125 C 181.277344 202.480469 182.195312 201.660156 183.113281 200.839844 L 172.511719 200.839844 C 171.324219 200.839844 170.355469 199.871094 170.355469 198.683594 C 170.355469 197.5 171.324219 196.527344 172.511719 196.527344 L 188.039062 196.527344 C 188.996094 195.699219 189.9375 194.878906 190.867188 194.0625 L 177.371094 194.0625 C 176.1875 194.0625 175.214844 193.09375 175.214844 191.90625 C 175.214844 190.71875 176.1875 189.75 177.371094 189.75 L 195.648438 189.75 C 196.527344 188.925781 197.386719 188.101562 198.203125 187.28125 L 184.488281 187.28125 C 183.300781 187.28125 182.332031 186.3125 182.332031 185.125 C 182.332031 183.941406 183.300781 182.96875 184.488281 182.96875 L 202.15625 182.96875 C 202.832031 182.148438 203.460938 181.328125 204.03125 180.5 L 192.414062 180.5 C 191.230469 180.5 190.261719 179.535156 190.261719 178.34375 C 190.261719 177.160156 191.226562 176.191406 192.414062 176.191406 L 206.46875 176.191406 C 206.816406 175.371094 207.101562 174.546875 207.308594 173.722656 L 199.902344 173.722656 C 198.714844 173.722656 197.746094 172.753906 197.746094 171.566406 C 197.746094 170.382812 198.714844 169.410156 199.902344 169.410156 L 207.695312 169.410156 C 207.542969 167.570312 206.988281 165.691406 205.945312 163.769531 Z M 205.945312 163.769531 " fill-opacity="1" fill-rule="nonzero"/></g><g clip-path="url(#4e75733c34)"><path fill="#016080" d="M 169.046875 211.21875 C 168.238281 210.628906 167.082031 209.582031 165.925781 208.085938 C 161.890625 202.875 157.761719 192.242188 167.542969 176.699219 C 167.542969 176.695312 167.542969 176.691406 167.546875 176.6875 C 167.542969 176.691406 167.539062 176.699219 167.539062 176.703125 C 160.300781 185.929688 157.632812 197.210938 160.347656 206.695312 L 132.324219 206.695312 C 129.074219 206.695312 126.410156 204.03125 126.410156 200.777344 L 126.410156 174.203125 C 126.410156 170.949219 129.074219 168.289062 132.324219 168.289062 L 157.914062 168.289062 C 163.625 168.289062 168.296875 163.617188 168.296875 157.90625 L 168.296875 132.324219 C 168.296875 129.070312 170.960938 126.410156 174.210938 126.410156 L 199.5 126.410156 C 200.125 130.773438 200.339844 141.910156 189.488281 153.335938 C 189.488281 153.339844 189.570312 153.253906 189.582031 153.246094 C 199.726562 143.445312 207.871094 133.246094 202.464844 120.257812 C 202.464844 120.257812 214.761719 125.128906 213.371094 142.070312 C 210.886719 172.242188 156.851562 188.777344 169.046875 211.21875 Z M 169.046875 211.21875 " fill-opacity="1" fill-rule="nonzero"/></g><g clip-path="url(#ee0eec4757)"><path fill="#00adee" d="M 169.046875 211.21875 C 168.238281 210.628906 167.082031 209.578125 165.925781 208.085938 C 161.621094 202.523438 157.210938 190.796875 169.6875 173.527344 C 182.308594 156.058594 211.554688 142.105469 202.460938 120.261719 C 229.589844 157.210938 149.390625 175.476562 169.046875 211.21875 Z M 169.046875 211.21875 " fill-opacity="1" fill-rule="nonzero"/></g><g clip-path="url(#f0b5eeca51)"><path fill="#268a80" d="M 248.582031 174.207031 L 248.582031 200.78125 C 248.582031 204.035156 245.917969 206.699219 242.664062 206.699219 L 217.078125 206.699219 C 211.367188 206.699219 206.695312 211.371094 206.695312 217.078125 L 206.695312 242.667969 C 206.695312 245.925781 204.03125 248.582031 200.777344 248.582031 L 175.492188 248.582031 C 174.867188 244.21875 174.652344 233.082031 185.5 221.65625 C 185.5 221.65625 185.144531 222 185.109375 222.03125 C 175.105469 231.746094 167.175781 241.871094 172.523438 254.730469 C 145.394531 217.78125 225.597656 199.515625 205.941406 163.769531 C 206.75 164.359375 207.902344 165.410156 209.0625 166.902344 C 213.097656 172.113281 217.226562 182.753906 207.441406 198.292969 C 214.683594 189.0625 217.355469 177.78125 214.636719 168.292969 L 242.660156 168.292969 C 245.917969 168.292969 248.582031 170.953125 248.582031 174.207031 Z M 248.582031 174.207031 " fill-opacity="1" fill-rule="nonzero"/></g></svg>