<svg xmlns="http://www.w3.org/2000/svg" xmlns:xlink="http://www.w3.org/1999/xlink" width="500" zoomAndPan="magnify" viewBox="0 0 375 374.999991" height="500" preserveAspectRatio="xMidYMid meet" version="1.0"><defs><clipPath id="456c402b74"><path d="M 17.109375 0 L 260 0 L 260 254 L 17.109375 254 Z M 17.109375 0 " clip-rule="nonzero"/></clipPath><clipPath id="5dad60e51b"><path d="M 129 121 L 357.609375 121 L 357.609375 375 L 129 375 Z M 129 121 " clip-rule="nonzero"/></clipPath></defs><path fill="#004d46" d="M 238.945312 121.339844 C 241.207031 122.984375 244.421875 125.910156 247.648438 130.082031 C 259.65625 145.585938 271.953125 178.289062 237.164062 226.453125 C 201.972656 275.167969 120.414062 314.070312 145.769531 374.992188 C 145.769531 374.992188 111.476562 361.40625 115.355469 314.160156 C 117.558594 287.378906 134.328125 264.457031 155.066406 243.632812 L 140.46875 243.632812 C 137.164062 243.632812 134.457031 240.933594 134.457031 237.621094 C 134.457031 234.316406 137.15625 231.605469 140.46875 231.605469 L 167.640625 231.605469 C 170.164062 229.289062 172.714844 226.996094 175.28125 224.71875 L 145.710938 224.71875 C 142.410156 224.71875 139.699219 222.019531 139.699219 218.703125 C 139.699219 215.402344 142.398438 212.691406 145.710938 212.691406 L 189.019531 212.691406 C 191.679688 210.382812 194.3125 208.09375 196.902344 205.8125 L 159.269531 205.8125 C 155.964844 205.8125 153.253906 203.113281 153.253906 199.796875 C 153.253906 196.496094 155.964844 193.785156 159.269531 193.785156 L 210.234375 193.785156 C 212.691406 191.484375 215.078125 189.195312 217.359375 186.90625 L 179.109375 186.90625 C 175.804688 186.90625 173.097656 184.207031 173.097656 180.894531 C 173.097656 177.589844 175.804688 174.878906 179.109375 174.878906 L 228.382812 174.878906 C 230.273438 172.589844 232.027344 170.300781 233.613281 168 L 201.222656 168 C 197.917969 168 195.207031 165.300781 195.207031 161.988281 C 195.207031 158.683594 197.90625 155.972656 201.222656 155.972656 L 240.40625 155.972656 C 241.382812 153.695312 242.171875 151.394531 242.757812 149.09375 L 222.097656 149.09375 C 218.792969 149.09375 216.082031 146.394531 216.082031 143.082031 C 216.082031 139.777344 218.78125 137.066406 222.097656 137.066406 L 243.828125 137.066406 C 243.410156 131.941406 241.859375 126.699219 238.945312 121.339844 Z M 238.945312 121.339844 " fill-opacity="1" fill-rule="nonzero"/><g clip-path="url(#456c402b74)"><path fill="#016080" d="M 136.054688 253.660156 C 133.792969 252.015625 130.578125 249.089844 127.351562 244.917969 C 116.097656 230.390625 104.585938 200.734375 131.855469 157.398438 C 131.863281 157.386719 131.863281 157.378906 131.875 157.367188 C 131.863281 157.378906 131.84375 157.398438 131.84375 157.40625 C 111.660156 183.132812 104.226562 214.59375 111.796875 241.039062 L 33.652344 241.039062 C 24.578125 241.039062 17.152344 233.613281 17.152344 224.542969 L 17.152344 150.4375 C 17.152344 141.367188 24.578125 133.941406 33.652344 133.941406 L 105.003906 133.941406 C 120.929688 133.941406 133.960938 120.910156 133.960938 104.988281 L 133.960938 33.652344 C 133.960938 24.578125 141.386719 17.152344 150.457031 17.152344 L 220.976562 17.152344 C 222.71875 29.324219 223.3125 60.382812 193.054688 92.238281 C 193.054688 92.25 193.289062 92.015625 193.316406 91.996094 C 221.609375 64.660156 244.316406 36.222656 229.238281 0 C 229.238281 0 263.53125 13.585938 259.65625 60.832031 C 252.734375 144.960938 102.042969 191.078125 136.054688 253.660156 Z M 136.054688 253.660156 " fill-opacity="1" fill-rule="nonzero"/></g><path fill="#00adee" d="M 136.054688 253.660156 C 133.792969 252.015625 130.578125 249.082031 127.351562 244.917969 C 115.34375 229.414062 103.046875 196.710938 137.835938 148.546875 C 173.039062 99.832031 254.597656 60.929688 229.230469 0.0078125 C 304.890625 103.046875 81.238281 153.984375 136.054688 253.660156 Z M 136.054688 253.660156 " fill-opacity="1" fill-rule="nonzero"/><g clip-path="url(#5dad60e51b)"><path fill="#268a80" d="M 357.847656 150.449219 L 357.847656 224.550781 C 357.847656 233.625 350.421875 241.050781 341.347656 241.050781 L 269.996094 241.050781 C 254.070312 241.050781 241.039062 254.078125 241.039062 270.003906 L 241.039062 341.359375 C 241.039062 350.441406 233.613281 357.859375 224.542969 357.859375 L 154.023438 357.859375 C 152.28125 345.6875 151.6875 314.628906 181.933594 282.769531 C 181.933594 282.761719 180.941406 283.726562 180.84375 283.8125 C 152.941406 310.90625 130.832031 339.136719 145.75 375 C 70.097656 271.960938 293.753906 221.023438 238.9375 121.339844 C 241.195312 122.984375 244.414062 125.917969 247.636719 130.082031 C 258.894531 144.609375 270.414062 174.277344 243.125 217.613281 C 263.320312 191.875 270.773438 160.40625 263.191406 133.949219 L 341.339844 133.949219 C 350.421875 133.949219 357.847656 141.375 357.847656 150.449219 Z M 357.847656 150.449219 " fill-opacity="1" fill-rule="nonzero"/></g></svg>